<svg
                  width="149px"
                  height="149px"
                  viewBox="0 0 24 24"
                  xmlns="http://www.w3.org/2000/svg"
                  fill="#16A34A"
                  stroke="#16A34A"
                >
                  <g>
                    <path
                      d="M18.68,8.16V15.8a2.86,2.86,0,0,1-2.86,2.86H13.91v2.86L8.18,18.66H4.36A2.86,2.86,0,0,1,1.5,15.8V8.16A2.86,2.86,0,0,1,4.36,5.3H15.82A2.86,2.86,0,0,1,18.68,8.16Z"
                      stroke="#16A34A"
                      strokeWidth="1.91"
                      strokeMiterlimit="10"
                      strokeLinecap="round"
                      strokeLinejoin="round"
                      fill="none"
                    />
                    <path
                      d="M18.68,14.84h1A2.86,2.86,0,0,0,22.5,12V4.34a2.86,2.86,0,0,0-2.86-2.86H8.18A2.86,2.86,0,0,0,5.32,4.34v1"
                      stroke="#16A34A"
                      strokeWidth="1.91"
                      strokeMiterlimit="10"
                      strokeLinecap="round"
                      strokeLinejoin="round"
                      fill="none"
                    />
                    <line
                      x1="5.32"
                      y1="11.98"
                      x2="7.23"
                      y2="11.98"
                      stroke="#16A34A"
                      strokeWidth="1.91"
                      strokeLinecap="round"
                      strokeLinejoin="round"
                    />
                    <line
                      x1="9.14"
                      y1="11.98"
                      x2="11.05"
                      y2="11.98"
                      stroke="#16A34A"
                      strokeWidth="1.91"
                      strokeLinecap="round"
                      strokeLinejoin="round"
                    />
                    <line
                      x1="12.95"
                      y1="11.98"
                      x2="14.86"
                      y2="11.98"
                      stroke="#16A34A"
                      strokeWidth="1.91"
                      strokeLinecap="round"
                      strokeLinejoin="round"
                    />
                  </g>
                </svg>